<svg width="1440" height="900" viewBox="0 0 1440 900" fill="none" xmlns="http://www.w3.org/2000/svg">
<mask id="mask0_68_812" style="mask-type:alpha" maskUnits="userSpaceOnUse" x="0" y="0" width="1440" height="900">
<rect width="1440" height="900" fill="#C4C4C4"/>
</mask>
<g mask="url(#mask0_68_812)">
<rect x="-66" y="0.359375" width="1572" height="929.053" fill="#211F97"/>
<g filter="url(#filter0_f_68_812)">
<path d="M-57.8301 387.882L744.277 -12.0332L1108.87 -12.0332L1555.07 94.6109L-9.21778 690.674L-57.8301 387.882Z" fill="url(#paint0_linear_68_812)"/>
<path d="M-57.8301 387.882L744.277 -12.0332L1108.87 -12.0332L1555.07 94.6109L-9.21778 690.674L-57.8301 387.882Z" fill="url(#paint1_linear_68_812)"/>
</g>
<g filter="url(#filter1_f_68_812)">
<path d="M-101.107 367.631L800.122 -7.78257L1108.87 -20.0332L1555.07 86.6109L-9.21663 682.674L-101.107 367.631Z" fill="url(#paint2_linear_68_812)"/>
</g>
<g filter="url(#filter2_f_68_812)">
<path d="M-101.107 359.631L800.122 -14.7826L1108.87 -27.0332L1555.07 78.6109L-9.21663 674.674L-101.107 359.631Z" fill="url(#paint3_linear_68_812)"/>
</g>
<g filter="url(#filter3_f_68_812)">
<ellipse cx="328.621" cy="105.369" rx="328.621" ry="105.369" transform="matrix(0.918258 -0.395982 0.337405 0.94136 508.14 334.988)" fill="#FC57FF"/>
</g>
<g filter="url(#filter4_f_68_812)">
<path d="M673.463 29.6095C498.517 54.3701 280.304 101.828 65.8544 29.6095C54.5674 24.1072 45.914 30.0222 101.596 97.701C171.198 182.299 398.816 147.222 673.463 29.6095Z" fill="#13A3F4"/>
</g>
<g opacity="0.4" filter="url(#filter5_f_68_812)">
<path d="M609.751 41.315C470.997 60.9533 297.927 98.5932 127.841 41.315C118.889 36.951 112.026 41.6423 156.188 95.3201C211.392 162.417 391.922 134.597 609.751 41.315Z" fill="#13A3F4"/>
</g>
<path d="M683.23 321.111C1018.31 161.145 1157.2 153.527 1478.39 214.467L1584.3 420.137L35.639 886.704C7.28175 881.626 89.4594 753.399 313.426 559.155C355.643 522.54 348.151 481.076 683.23 321.111Z" fill="url(#paint4_linear_68_812)"/>
<g opacity="0.7" filter="url(#filter6_f_68_812)">
<path d="M898.979 251.509C1242.14 113.679 1157.2 153.528 1478.39 214.467L1584.3 420.138L47.792 882.896C19.4347 877.818 -12.9736 770.158 84.2516 616.286C205.783 423.946 499.515 411.954 898.979 251.509Z" fill="#4462FF"/>
</g>
<g filter="url(#filter7_f_68_812)">
<path d="M806.495 338.25C1198.82 242.221 1179.04 153.528 1534.2 214.467L1584.3 420.138L-114.729 882.896C-146.086 877.818 -181.922 770.158 -74.4129 616.286C59.9733 423.946 510.846 410.615 806.495 338.25Z" fill="#275DC7"/>
</g>
<g filter="url(#filter8_f_68_812)">
<ellipse cx="328.621" cy="105.369" rx="328.621" ry="105.369" transform="matrix(0.918258 -0.395982 0.337405 0.94136 -67.2598 492.294)" fill="#FF88D7"/>
</g>
<g opacity="0.4" filter="url(#filter9_f_68_812)">
<ellipse cx="328.621" cy="152.968" rx="328.621" ry="152.968" transform="matrix(0.918258 -0.395982 0.337405 0.94136 437.842 548.159)" fill="#FC62FF"/>
</g>
<g filter="url(#filter10_f_68_812)">
<ellipse cx="328.621" cy="105.369" rx="328.621" ry="105.369" transform="matrix(0.918258 -0.395982 0.337405 0.94136 980.781 422.622)" fill="#FFCDE5"/>
</g>
<g filter="url(#filter11_f_68_812)">
<ellipse cx="295.296" cy="162.311" rx="295.296" ry="162.311" transform="matrix(0.918258 -0.395982 0.337405 0.94136 -370.611 497.507)" fill="#211F97"/>
</g>
<g filter="url(#filter12_f_68_812)">
<path d="M-431 770.783V1355H1785V342.584L-431 770.783Z" fill="white"/>
</g>
<g filter="url(#filter13_f_68_812)">
<path d="M1168.87 190.948L1651.63 -49L1531.83 239.892L1168.87 190.948Z" fill="#6751ED"/>
</g>
<g opacity="0.4" filter="url(#filter14_f_68_812)">
<path d="M298.036 697.576L1093.86 435.376L1458.34 424.26L1905.99 474.053L351.196 876.099L298.036 697.576Z" fill="url(#paint5_linear_68_812)"/>
</g>
<g opacity="0.4" filter="url(#filter15_f_68_812)">
<path d="M338.843 666.311L1233.97 415.66L1542.39 398.965L1989.97 448.76L435.437 850.798L338.843 666.311Z" fill="url(#paint6_linear_68_812)"/>
</g>
<g opacity="0.4" filter="url(#filter16_f_68_812)">
<path d="M888 607.841L1690.16 370.006L2054.78 370.006L2501 433.429L936.615 787.916L888 607.841Z" fill="url(#paint7_linear_68_812)"/>
</g>
<g opacity="0.4" filter="url(#filter17_f_68_812)">
<path d="M845 626.88L1746.13 403.617L2054.85 396.331L2501 459.754L936.881 814.24L845 626.88Z" fill="url(#paint8_linear_68_812)"/>
</g>
</g>
<defs>
<filter id="filter0_f_68_812" x="-64.8301" y="-19.0332" width="1626.9" height="716.708" filterUnits="userSpaceOnUse" color-interpolation-filters="sRGB">
<feFlood flood-opacity="0" result="BackgroundImageFix"/>
<feBlend mode="normal" in="SourceGraphic" in2="BackgroundImageFix" result="shape"/>
<feGaussianBlur stdDeviation="3.5" result="effect1_foregroundBlur_68_812"/>
</filter>
<filter id="filter1_f_68_812" x="-125.107" y="-44.0332" width="1704.18" height="750.708" filterUnits="userSpaceOnUse" color-interpolation-filters="sRGB">
<feFlood flood-opacity="0" result="BackgroundImageFix"/>
<feBlend mode="normal" in="SourceGraphic" in2="BackgroundImageFix" result="shape"/>
<feGaussianBlur stdDeviation="12" result="effect1_foregroundBlur_68_812"/>
</filter>
<filter id="filter2_f_68_812" x="-125.107" y="-51.0332" width="1704.18" height="749.708" filterUnits="userSpaceOnUse" color-interpolation-filters="sRGB">
<feFlood flood-opacity="0" result="BackgroundImageFix"/>
<feBlend mode="normal" in="SourceGraphic" in2="BackgroundImageFix" result="shape"/>
<feGaussianBlur stdDeviation="12" result="effect1_foregroundBlur_68_812"/>
</filter>
<filter id="filter3_f_68_812" x="377.575" y="-23.5796" width="935.751" height="655.26" filterUnits="userSpaceOnUse" color-interpolation-filters="sRGB">
<feFlood flood-opacity="0" result="BackgroundImageFix"/>
<feBlend mode="normal" in="SourceGraphic" in2="BackgroundImageFix" result="shape"/>
<feGaussianBlur stdDeviation="82" result="effect1_foregroundBlur_68_812"/>
</filter>
<filter id="filter4_f_68_812" x="-10.4902" y="-39.9604" width="751.953" height="252.305" filterUnits="userSpaceOnUse" color-interpolation-filters="sRGB">
<feFlood flood-opacity="0" result="BackgroundImageFix"/>
<feBlend mode="normal" in="SourceGraphic" in2="BackgroundImageFix" result="shape"/>
<feGaussianBlur stdDeviation="34" result="effect1_foregroundBlur_68_812"/>
</filter>
<filter id="filter5_f_68_812" x="85.2227" y="4.06982" width="560.528" height="164.245" filterUnits="userSpaceOnUse" color-interpolation-filters="sRGB">
<feFlood flood-opacity="0" result="BackgroundImageFix"/>
<feBlend mode="normal" in="SourceGraphic" in2="BackgroundImageFix" result="shape"/>
<feGaussianBlur stdDeviation="18" result="effect1_foregroundBlur_68_812"/>
</filter>
<filter id="filter6_f_68_812" x="7.91602" y="147.446" width="1587.38" height="746.45" filterUnits="userSpaceOnUse" color-interpolation-filters="sRGB">
<feFlood flood-opacity="0" result="BackgroundImageFix"/>
<feBlend mode="normal" in="SourceGraphic" in2="BackgroundImageFix" result="shape"/>
<feGaussianBlur stdDeviation="5.5" result="effect1_foregroundBlur_68_812"/>
</filter>
<filter id="filter7_f_68_812" x="-192.659" y="148.434" width="1822.96" height="780.462" filterUnits="userSpaceOnUse" color-interpolation-filters="sRGB">
<feFlood flood-opacity="0" result="BackgroundImageFix"/>
<feBlend mode="normal" in="SourceGraphic" in2="BackgroundImageFix" result="shape"/>
<feGaussianBlur stdDeviation="23" result="effect1_foregroundBlur_68_812"/>
</filter>
<filter id="filter8_f_68_812" x="-197.824" y="133.727" width="935.751" height="655.26" filterUnits="userSpaceOnUse" color-interpolation-filters="sRGB">
<feFlood flood-opacity="0" result="BackgroundImageFix"/>
<feBlend mode="normal" in="SourceGraphic" in2="BackgroundImageFix" result="shape"/>
<feGaussianBlur stdDeviation="82" result="effect1_foregroundBlur_68_812"/>
</filter>
<filter id="filter9_f_68_812" x="321.022" y="203.943" width="940.382" height="716.172" filterUnits="userSpaceOnUse" color-interpolation-filters="sRGB">
<feFlood flood-opacity="0" result="BackgroundImageFix"/>
<feBlend mode="normal" in="SourceGraphic" in2="BackgroundImageFix" result="shape"/>
<feGaussianBlur stdDeviation="82" result="effect1_foregroundBlur_68_812"/>
</filter>
<filter id="filter10_f_68_812" x="850.217" y="64.0542" width="935.751" height="655.26" filterUnits="userSpaceOnUse" color-interpolation-filters="sRGB">
<feFlood flood-opacity="0" result="BackgroundImageFix"/>
<feBlend mode="normal" in="SourceGraphic" in2="BackgroundImageFix" result="shape"/>
<feGaussianBlur stdDeviation="82" result="effect1_foregroundBlur_68_812"/>
</filter>
<filter id="filter11_f_68_812" x="-485.376" y="176.956" width="881.374" height="712.824" filterUnits="userSpaceOnUse" color-interpolation-filters="sRGB">
<feFlood flood-opacity="0" result="BackgroundImageFix"/>
<feBlend mode="normal" in="SourceGraphic" in2="BackgroundImageFix" result="shape"/>
<feGaussianBlur stdDeviation="82" result="effect1_foregroundBlur_68_812"/>
</filter>
<filter id="filter12_f_68_812" x="-587" y="186.584" width="2528" height="1324.42" filterUnits="userSpaceOnUse" color-interpolation-filters="sRGB">
<feFlood flood-opacity="0" result="BackgroundImageFix"/>
<feBlend mode="normal" in="SourceGraphic" in2="BackgroundImageFix" result="shape"/>
<feGaussianBlur stdDeviation="78" result="effect1_foregroundBlur_68_812"/>
</filter>
<filter id="filter13_f_68_812" x="1100.87" y="-117" width="618.759" height="424.892" filterUnits="userSpaceOnUse" color-interpolation-filters="sRGB">
<feFlood flood-opacity="0" result="BackgroundImageFix"/>
<feBlend mode="normal" in="SourceGraphic" in2="BackgroundImageFix" result="shape"/>
<feGaussianBlur stdDeviation="34" result="effect1_foregroundBlur_68_812"/>
</filter>
<filter id="filter14_f_68_812" x="291.036" y="417.26" width="1621.96" height="465.839" filterUnits="userSpaceOnUse" color-interpolation-filters="sRGB">
<feFlood flood-opacity="0" result="BackgroundImageFix"/>
<feBlend mode="normal" in="SourceGraphic" in2="BackgroundImageFix" result="shape"/>
<feGaussianBlur stdDeviation="3.5" result="effect1_foregroundBlur_68_812"/>
</filter>
<filter id="filter15_f_68_812" x="314.844" y="374.964" width="1699.12" height="499.833" filterUnits="userSpaceOnUse" color-interpolation-filters="sRGB">
<feFlood flood-opacity="0" result="BackgroundImageFix"/>
<feBlend mode="normal" in="SourceGraphic" in2="BackgroundImageFix" result="shape"/>
<feGaussianBlur stdDeviation="12" result="effect1_foregroundBlur_68_812"/>
</filter>
<filter id="filter16_f_68_812" x="881" y="363.006" width="1627" height="431.909" filterUnits="userSpaceOnUse" color-interpolation-filters="sRGB">
<feFlood flood-opacity="0" result="BackgroundImageFix"/>
<feBlend mode="normal" in="SourceGraphic" in2="BackgroundImageFix" result="shape"/>
<feGaussianBlur stdDeviation="3.5" result="effect1_foregroundBlur_68_812"/>
</filter>
<filter id="filter17_f_68_812" x="821" y="372.331" width="1704" height="465.909" filterUnits="userSpaceOnUse" color-interpolation-filters="sRGB">
<feFlood flood-opacity="0" result="BackgroundImageFix"/>
<feBlend mode="normal" in="SourceGraphic" in2="BackgroundImageFix" result="shape"/>
<feGaussianBlur stdDeviation="12" result="effect1_foregroundBlur_68_812"/>
</filter>
<linearGradient id="paint0_linear_68_812" x1="748.618" y1="-12.0332" x2="94.6917" y2="554.03" gradientUnits="userSpaceOnUse">
<stop stop-color="#C4AFFF"/>
<stop offset="1" stop-color="white" stop-opacity="0"/>
</linearGradient>
<linearGradient id="paint1_linear_68_812" x1="528.753" y1="237.438" x2="68.4264" y2="611.253" gradientUnits="userSpaceOnUse">
<stop offset="0.0104167" stop-color="#B4E8FF"/>
<stop offset="0.677083" stop-color="#FF18F6" stop-opacity="0.484375"/>
<stop offset="1" stop-color="#00E0FF" stop-opacity="0"/>
</linearGradient>
<linearGradient id="paint2_linear_68_812" x1="501.216" y1="229.438" x2="38.5365" y2="615.245" gradientUnits="userSpaceOnUse">
<stop offset="0.0104167" stop-color="#B4E8FF"/>
<stop offset="0.677083" stop-color="#FF18F6" stop-opacity="0.484375"/>
<stop offset="1" stop-color="#00E0FF" stop-opacity="0"/>
</linearGradient>
<linearGradient id="paint3_linear_68_812" x1="501.216" y1="221.438" x2="38.5365" y2="607.245" gradientUnits="userSpaceOnUse">
<stop offset="0.0104167" stop-color="#B4E8FF"/>
<stop offset="0.677083" stop-color="#FF18F6" stop-opacity="0.484375"/>
<stop offset="1" stop-color="#00E0FF" stop-opacity="0"/>
</linearGradient>
<linearGradient id="paint4_linear_68_812" x1="1164.15" y1="263.98" x2="419.274" y2="536.262" gradientUnits="userSpaceOnUse">
<stop stop-color="#81A4FF"/>
<stop offset="0.65537" stop-color="#A93DFF"/>
<stop offset="1" stop-color="#819CFF"/>
</linearGradient>
<linearGradient id="paint5_linear_68_812" x1="1098.2" y1="435.244" x2="746.153" y2="980.844" gradientUnits="userSpaceOnUse">
<stop stop-color="#C4AFFF"/>
<stop offset="1" stop-color="white" stop-opacity="0"/>
</linearGradient>
<linearGradient id="paint6_linear_68_812" x1="938.787" y1="565.795" x2="684.497" y2="944.962" gradientUnits="userSpaceOnUse">
<stop offset="0.0104167" stop-color="#B4E8FF"/>
<stop offset="0.677083" stop-color="#FF18F6" stop-opacity="0.484375"/>
<stop offset="1" stop-color="#00E0FF" stop-opacity="0"/>
</linearGradient>
<linearGradient id="paint7_linear_68_812" x1="1694.5" y1="370.006" x2="1327.7" y2="903.933" gradientUnits="userSpaceOnUse">
<stop stop-color="#C4AFFF"/>
<stop offset="1" stop-color="white" stop-opacity="0"/>
</linearGradient>
<linearGradient id="paint8_linear_68_812" x1="1447.26" y1="544.695" x2="1182.78" y2="915.48" gradientUnits="userSpaceOnUse">
<stop offset="0.0104167" stop-color="#ACB9FF" stop-opacity="0.22"/>
<stop offset="0.677083" stop-color="#18ACFF" stop-opacity="0.484375"/>
<stop offset="1" stop-color="#8000FF" stop-opacity="0"/>
</linearGradient>
</defs>
</svg>
